<svg xmlns="http://www.w3.org/2000/svg" width="1420" height="378" viewBox="0 0 1420 378" fill="none">
  <path d="M206.178 372.396H149.02L146.468 348.962C136.261 366.283 119.42 378 94.9237 378H84.7169C34.1929 378 0 346.924 0 295.472V84.0566C0 31.5849 35.2136 0 87.2686 0H118.91C172.496 0 206.689 30.0566 206.689 84.0566V128.887H119.93V88.1321C119.93 75.9057 115.848 69.283 103.089 69.283C90.841 69.283 86.7582 75.9057 86.7582 88.1321V292.415C86.7582 303.113 91.8616 308.717 102.069 308.717C114.317 308.717 119.42 302.094 119.42 281.208V242.491H101.048V173.717H206.178V372.396Z" fill="black"/>
  <path d="M438.033 372.396H350.254L343.62 284.774H310.958L304.324 372.396H218.076L260.434 5.60376H395.675L438.033 372.396ZM316.572 215.491H338.006L327.289 78.9622L316.572 215.491Z" fill="black"/>
  <path d="M617.965 372.396H450.573V5.60376H537.331V303.113H617.965V372.396Z" fill="black"/>
  <path d="M800.871 372.396H633.479V5.60376H720.237V303.113H800.871V372.396Z" fill="black"/>
  <path d="M972.039 372.396H816.384V5.60376H968.467V74.8868H903.143V151.811H957.239V221.094H903.143V303.113H972.039V372.396Z" fill="black"/>
  <path d="M1075.58 372.396H988.824V5.60376H1123.04C1166.93 5.60376 1192.45 31.5849 1192.45 75.3962V150.792C1192.45 172.189 1178.67 191.547 1152.64 202.245C1177.65 211.415 1189.9 230.264 1189.9 257.774V320.434C1189.9 343.358 1193.98 358.132 1201.13 372.396H1110.29C1105.18 361.189 1103.14 344.887 1103.14 320.434V258.792C1103.14 245.547 1098.55 240.962 1085.79 240.962H1075.58V372.396ZM1091.91 74.8868H1075.58V171.679H1091.91C1100.08 171.679 1105.69 167.094 1105.69 157.925V88.6415C1105.69 78.9622 1100.59 74.8868 1091.91 74.8868Z" fill="black"/>
  <path d="M1348.55 372.396H1261.79V238.415L1190.35 5.60376H1281.19L1305.68 147.226L1332.22 5.60376H1420L1348.55 238.415V372.396Z" fill="black"/>
</svg>